<?xml version="1.0" ?><!DOCTYPE svg  PUBLIC '-//W3C//DTD SVG 1.1//EN'  'http://www.w3.org/Graphics/SVG/1.1/DTD/svg11.dtd'><svg enable-background="new 0 0 64 64" height="64px" id="Layer_1" version="1.1" viewBox="0 0 64 64" width="64px" xml:space="preserve" xmlns="http://www.w3.org/2000/svg" xmlns:xlink="http://www.w3.org/1999/xlink"><g><g><path d="M52.871,26.492H11.096c-0.823,0-1.492,0.657-1.492,1.472v24.111c0,0.812,0.669,1.471,1.492,1.471h41.775    c0.824,0,1.492-0.659,1.492-1.471V27.964C54.363,27.149,53.695,26.492,52.871,26.492z M50.66,49.766    c0,0.655-0.557,1.188-1.244,1.188H14.551c-0.687,0-1.246-0.533-1.246-1.188V30.273c0-0.658,0.559-1.192,1.246-1.192h34.865    c0.688,0,1.244,0.534,1.244,1.192V49.766z" fill="#241F20"/></g><g><path d="M60.699,16.866H42.115c-2.146-1.571-4.664-2.645-7.404-3.078c0,0,9.666-9.651,10.387-10.373    c0.723-0.722,0.836-1.619,0-2.372c-1.25-1.011-2.324,0.191-2.324,0.191S32.576,11.432,31.391,12.618    c-1.17,1.17-1.716,0.368-1.716,0.368s-7.968-7.968-8.722-8.641s-1.732-0.434-2.325,0.257c-0.834,1.041,0.192,2.115,0.192,2.115    l7.76,7.713h0.032c-1.731,0.56-3.334,1.395-4.777,2.436H3.301c-1.764,0-3.207,1.444-3.207,3.207v43.29h63.812v-43.29    C63.906,18.31,62.479,16.866,60.699,16.866z M57.551,54.921c0,1.011-0.762,1.832-1.707,1.832H8.053    c-0.941,0-1.707-0.821-1.707-1.832V24.917c0-1.012,0.766-1.833,1.707-1.833h47.791c0.945,0,1.707,0.821,1.707,1.833V54.921z" fill="#241F20"/></g></g></svg>